<mxfile host="Electron" modified="2023-12-18T08:42:32.563Z" agent="Mozilla/5.0 (Windows NT 10.0; Win64; x64) AppleWebKit/537.36 (KHTML, like Gecko) draw.io/21.2.8 Chrome/112.0.5615.165 Electron/24.2.0 Safari/537.36" etag="8gHQofDMY4XRnL2sBwcB" version="21.2.8" type="device">
  <diagram name="Page-1" id="XnzADeMt7MzlG9ctFfFO">
    <mxGraphModel dx="1571" dy="697" grid="1" gridSize="10" guides="1" tooltips="1" connect="1" arrows="1" fold="1" page="1" pageScale="1" pageWidth="827" pageHeight="1169" math="0" shadow="0">
      <root>
        <mxCell id="0" />
        <mxCell id="1" parent="0" />
        <mxCell id="DMFurzcilgjRa8s7DJDO-3" style="edgeStyle=orthogonalEdgeStyle;rounded=0;orthogonalLoop=1;jettySize=auto;html=1;exitX=0.5;exitY=1;exitDx=0;exitDy=0;" edge="1" parent="1" source="DMFurzcilgjRa8s7DJDO-1" target="DMFurzcilgjRa8s7DJDO-2">
          <mxGeometry relative="1" as="geometry" />
        </mxCell>
        <mxCell id="DMFurzcilgjRa8s7DJDO-1" value="&lt;b&gt;&lt;font style=&quot;font-size: 14px;&quot; face=&quot;Verdana&quot;&gt;Client&lt;/font&gt;&lt;/b&gt;" style="rounded=0;whiteSpace=wrap;html=1;fillColor=#ffcc99;strokeColor=#36393d;" vertex="1" parent="1">
          <mxGeometry x="40" y="400" width="110" height="50" as="geometry" />
        </mxCell>
        <mxCell id="DMFurzcilgjRa8s7DJDO-5" style="edgeStyle=orthogonalEdgeStyle;rounded=0;orthogonalLoop=1;jettySize=auto;html=1;exitX=1;exitY=0.5;exitDx=0;exitDy=0;entryX=0;entryY=0.5;entryDx=0;entryDy=0;" edge="1" parent="1" source="DMFurzcilgjRa8s7DJDO-2" target="DMFurzcilgjRa8s7DJDO-4">
          <mxGeometry relative="1" as="geometry" />
        </mxCell>
        <mxCell id="DMFurzcilgjRa8s7DJDO-2" value="&lt;b&gt;&lt;font style=&quot;font-size: 14px;&quot; face=&quot;Verdana&quot;&gt;PreRequestProcessor&lt;/font&gt;&lt;/b&gt;" style="rounded=0;whiteSpace=wrap;html=1;" vertex="1" parent="1">
          <mxGeometry x="-10" y="500" width="210" height="45" as="geometry" />
        </mxCell>
        <mxCell id="DMFurzcilgjRa8s7DJDO-7" style="edgeStyle=orthogonalEdgeStyle;rounded=0;orthogonalLoop=1;jettySize=auto;html=1;exitX=1;exitY=0.5;exitDx=0;exitDy=0;" edge="1" parent="1" source="DMFurzcilgjRa8s7DJDO-4" target="DMFurzcilgjRa8s7DJDO-6">
          <mxGeometry relative="1" as="geometry" />
        </mxCell>
        <mxCell id="DMFurzcilgjRa8s7DJDO-13" style="edgeStyle=orthogonalEdgeStyle;rounded=0;orthogonalLoop=1;jettySize=auto;html=1;exitX=0.5;exitY=1;exitDx=0;exitDy=0;entryX=0.5;entryY=0;entryDx=0;entryDy=0;" edge="1" parent="1" source="DMFurzcilgjRa8s7DJDO-4" target="DMFurzcilgjRa8s7DJDO-12">
          <mxGeometry relative="1" as="geometry" />
        </mxCell>
        <mxCell id="DMFurzcilgjRa8s7DJDO-4" value="&lt;b&gt;&lt;font style=&quot;font-size: 14px;&quot; face=&quot;Verdana&quot;&gt;ProposalRequestProcessor&lt;/font&gt;&lt;/b&gt;" style="rounded=0;whiteSpace=wrap;html=1;" vertex="1" parent="1">
          <mxGeometry x="260" y="500" width="260" height="45" as="geometry" />
        </mxCell>
        <mxCell id="DMFurzcilgjRa8s7DJDO-9" style="edgeStyle=orthogonalEdgeStyle;rounded=0;orthogonalLoop=1;jettySize=auto;html=1;exitX=1;exitY=0.5;exitDx=0;exitDy=0;entryX=0;entryY=0.5;entryDx=0;entryDy=0;" edge="1" parent="1" source="DMFurzcilgjRa8s7DJDO-6" target="DMFurzcilgjRa8s7DJDO-8">
          <mxGeometry relative="1" as="geometry" />
        </mxCell>
        <mxCell id="DMFurzcilgjRa8s7DJDO-6" value="&lt;b&gt;&lt;font style=&quot;font-size: 14px;&quot; face=&quot;Verdana&quot;&gt;CommitProcessor&lt;/font&gt;&lt;/b&gt;" style="rounded=0;whiteSpace=wrap;html=1;" vertex="1" parent="1">
          <mxGeometry x="580" y="500" width="180" height="45" as="geometry" />
        </mxCell>
        <mxCell id="DMFurzcilgjRa8s7DJDO-11" style="edgeStyle=orthogonalEdgeStyle;rounded=0;orthogonalLoop=1;jettySize=auto;html=1;exitX=1;exitY=0.5;exitDx=0;exitDy=0;" edge="1" parent="1" source="DMFurzcilgjRa8s7DJDO-8" target="DMFurzcilgjRa8s7DJDO-10">
          <mxGeometry relative="1" as="geometry" />
        </mxCell>
        <mxCell id="DMFurzcilgjRa8s7DJDO-8" value="&lt;b&gt;&lt;font style=&quot;font-size: 14px;&quot; face=&quot;Verdana&quot;&gt;ToBeAppliedRequestProcessor&lt;/font&gt;&lt;/b&gt;" style="rounded=0;whiteSpace=wrap;html=1;" vertex="1" parent="1">
          <mxGeometry x="820" y="500" width="290" height="45" as="geometry" />
        </mxCell>
        <mxCell id="DMFurzcilgjRa8s7DJDO-25" style="edgeStyle=orthogonalEdgeStyle;rounded=0;orthogonalLoop=1;jettySize=auto;html=1;exitX=0.5;exitY=1;exitDx=0;exitDy=0;entryX=0.5;entryY=0;entryDx=0;entryDy=0;" edge="1" parent="1" source="DMFurzcilgjRa8s7DJDO-10" target="DMFurzcilgjRa8s7DJDO-24">
          <mxGeometry relative="1" as="geometry" />
        </mxCell>
        <mxCell id="DMFurzcilgjRa8s7DJDO-26" style="edgeStyle=orthogonalEdgeStyle;rounded=0;orthogonalLoop=1;jettySize=auto;html=1;exitX=0.5;exitY=0;exitDx=0;exitDy=0;entryX=1;entryY=0.5;entryDx=0;entryDy=0;" edge="1" parent="1" source="DMFurzcilgjRa8s7DJDO-10" target="DMFurzcilgjRa8s7DJDO-1">
          <mxGeometry relative="1" as="geometry" />
        </mxCell>
        <mxCell id="DMFurzcilgjRa8s7DJDO-10" value="&lt;b&gt;&lt;font style=&quot;font-size: 14px;&quot; face=&quot;Verdana&quot;&gt;FinalRequestProcessor&lt;/font&gt;&lt;/b&gt;" style="rounded=0;whiteSpace=wrap;html=1;" vertex="1" parent="1">
          <mxGeometry x="1170" y="500" width="230" height="45" as="geometry" />
        </mxCell>
        <mxCell id="DMFurzcilgjRa8s7DJDO-15" style="edgeStyle=orthogonalEdgeStyle;rounded=0;orthogonalLoop=1;jettySize=auto;html=1;exitX=1;exitY=0.5;exitDx=0;exitDy=0;entryX=0;entryY=0.5;entryDx=0;entryDy=0;" edge="1" parent="1" source="DMFurzcilgjRa8s7DJDO-12" target="DMFurzcilgjRa8s7DJDO-14">
          <mxGeometry relative="1" as="geometry" />
        </mxCell>
        <mxCell id="DMFurzcilgjRa8s7DJDO-23" style="edgeStyle=orthogonalEdgeStyle;rounded=0;orthogonalLoop=1;jettySize=auto;html=1;exitX=0.5;exitY=1;exitDx=0;exitDy=0;entryX=0.5;entryY=0;entryDx=0;entryDy=0;" edge="1" parent="1" source="DMFurzcilgjRa8s7DJDO-12" target="DMFurzcilgjRa8s7DJDO-22">
          <mxGeometry relative="1" as="geometry" />
        </mxCell>
        <mxCell id="DMFurzcilgjRa8s7DJDO-12" value="&lt;b&gt;&lt;font style=&quot;font-size: 14px;&quot; face=&quot;Verdana&quot;&gt;SyncRequestProcessor&lt;/font&gt;&lt;/b&gt;" style="rounded=0;whiteSpace=wrap;html=1;" vertex="1" parent="1">
          <mxGeometry x="275" y="690" width="230" height="45" as="geometry" />
        </mxCell>
        <mxCell id="DMFurzcilgjRa8s7DJDO-17" style="edgeStyle=orthogonalEdgeStyle;rounded=0;orthogonalLoop=1;jettySize=auto;html=1;exitX=1;exitY=0.5;exitDx=0;exitDy=0;entryX=0.5;entryY=1;entryDx=0;entryDy=0;" edge="1" parent="1" source="DMFurzcilgjRa8s7DJDO-14" target="DMFurzcilgjRa8s7DJDO-16">
          <mxGeometry relative="1" as="geometry" />
        </mxCell>
        <mxCell id="DMFurzcilgjRa8s7DJDO-14" value="&lt;b&gt;&lt;font style=&quot;font-size: 14px;&quot; face=&quot;Verdana&quot;&gt;AckRequestProcessor&lt;/font&gt;&lt;/b&gt;" style="rounded=0;whiteSpace=wrap;html=1;" vertex="1" parent="1">
          <mxGeometry x="580" y="690" width="230" height="45" as="geometry" />
        </mxCell>
        <mxCell id="DMFurzcilgjRa8s7DJDO-16" value="&lt;font style=&quot;font-size: 14px;&quot; face=&quot;Verdana&quot;&gt;Vote&lt;/font&gt;" style="rounded=0;whiteSpace=wrap;html=1;fillColor=#ffcccc;strokeColor=#36393d;strokeWidth=2;" vertex="1" parent="1">
          <mxGeometry x="917.5" y="598" width="95" height="45" as="geometry" />
        </mxCell>
        <mxCell id="DMFurzcilgjRa8s7DJDO-18" value="" style="endArrow=classic;html=1;rounded=0;entryX=0;entryY=0.5;entryDx=0;entryDy=0;strokeColor=#FF0000;" edge="1" parent="1">
          <mxGeometry width="50" height="50" relative="1" as="geometry">
            <mxPoint x="420" y="545" as="sourcePoint" />
            <mxPoint x="917.5" y="620.5" as="targetPoint" />
            <Array as="points">
              <mxPoint x="420" y="621" />
            </Array>
          </mxGeometry>
        </mxCell>
        <mxCell id="DMFurzcilgjRa8s7DJDO-19" value="&lt;font style=&quot;font-size: 14px;&quot; face=&quot;Verdana&quot;&gt;create Proposal&lt;/font&gt;" style="text;html=1;align=center;verticalAlign=middle;resizable=0;points=[];autosize=1;strokeColor=none;fillColor=none;" vertex="1" parent="1">
          <mxGeometry x="620" y="585" width="130" height="30" as="geometry" />
        </mxCell>
        <mxCell id="DMFurzcilgjRa8s7DJDO-21" style="edgeStyle=orthogonalEdgeStyle;rounded=0;orthogonalLoop=1;jettySize=auto;html=1;exitX=0.5;exitY=0;exitDx=0;exitDy=0;entryX=1;entryY=0.5;entryDx=0;entryDy=0;" edge="1" parent="1" source="DMFurzcilgjRa8s7DJDO-20" target="DMFurzcilgjRa8s7DJDO-16">
          <mxGeometry relative="1" as="geometry" />
        </mxCell>
        <mxCell id="DMFurzcilgjRa8s7DJDO-20" value="&lt;b&gt;&lt;font style=&quot;font-size: 14px;&quot; face=&quot;Verdana&quot;&gt;Follower&lt;/font&gt;&lt;/b&gt;" style="rounded=0;whiteSpace=wrap;html=1;fillColor=#cce5ff;strokeColor=#36393d;" vertex="1" parent="1">
          <mxGeometry x="1080" y="687.5" width="110" height="50" as="geometry" />
        </mxCell>
        <mxCell id="DMFurzcilgjRa8s7DJDO-22" value="&lt;b&gt;&lt;font style=&quot;font-size: 14px;&quot; face=&quot;Verdana&quot;&gt;Log&lt;/font&gt;&lt;/b&gt;" style="rounded=0;whiteSpace=wrap;html=1;fillColor=#d5e8d4;strokeColor=#050505;" vertex="1" parent="1">
          <mxGeometry x="335" y="790" width="110" height="50" as="geometry" />
        </mxCell>
        <mxCell id="DMFurzcilgjRa8s7DJDO-24" value="&lt;b&gt;&lt;font style=&quot;font-size: 14px;&quot; face=&quot;Verdana&quot;&gt;DataTree&lt;/font&gt;&lt;/b&gt;" style="rounded=0;whiteSpace=wrap;html=1;fillColor=#e1d5e7;strokeColor=#0d0d0d;" vertex="1" parent="1">
          <mxGeometry x="1230" y="598" width="110" height="50" as="geometry" />
        </mxCell>
      </root>
    </mxGraphModel>
  </diagram>
</mxfile>
